<svg xmlns="http://www.w3.org/2000/svg" viewBox="0 0 430 430">
  <defs>
    <style>
      .cls-1 {
        isolation: isolate;
      }

      .cls-2, .cls-3 {
        fill: #b26836;
      }

      .cls-3, .cls-5, .cls-7 {
        mix-blend-mode: multiply;
        opacity: 0.5;
      }

      .cls-4, .cls-5 {
        fill: #4d2c19;
      }

      .cls-6, .cls-7 {
        fill: #fae6d1;
      }
    </style>
  </defs>
  <g class="cls-1">
    <g id="Warstwa_1" data-name="Warstwa 1">
      <g>
        <path class="cls-2" d="M267.6,238.33l-12.9,35.58-8,22L219.51,371a3,3,0,0,1-5.64,0L186.67,296l-17.95-49.53-3-8.18h0S213.33,165.72,267.6,238.33Z"/>
        <path class="cls-3" d="M252.15,274.63a3.22,3.22,0,0,1-2.29-.94L233.1,257.08l-16.72-16.56A3.25,3.25,0,1,1,221,235.9c10,9.87,12.73,12.61,16.72,16.57l16.76,16.6a3.25,3.25,0,0,1-2.29,5.56Z"/>
        <path class="cls-3" d="M235.92,319.39a3.1,3.1,0,0,1-2.23-.95L172,254.26a3.1,3.1,0,1,1,4.47-4.3l61.73,64.18a3.1,3.1,0,0,1-2.24,5.25Z"/>
        <path class="cls-4" d="M189.88,225A30,30,0,1,1,156,179.7a59.92,59.92,0,1,1,117.72.12A30,30,0,1,1,240,224.92a30,30,0,0,1-50.09,0"/>
        <path class="cls-5" d="M214.91,108.61a60.48,60.48,0,0,1,12,1.21,59.94,59.94,0,0,0-46.83,69.88,30,30,0,0,0-3.1,56,30,30,0,1,1-21-56,59.92,59.92,0,0,1,58.87-71.09Z"/>
        <path class="cls-6" d="M189.88,173.37A30,30,0,1,1,156,128.11a59.92,59.92,0,1,1,117.72.13A30,30,0,1,1,240,173.34a30,30,0,0,1-50.09,0"/>
        <path class="cls-7" d="M179.07,116.93a59.69,59.69,0,0,0,1.05,11.18,30,30,0,0,0-3.1,56,30,30,0,1,1-21-56A59.92,59.92,0,0,1,214.91,57a60.48,60.48,0,0,1,12,1.21A59.92,59.92,0,0,0,179.07,116.93Z"/>
      </g>
    </g>
  </g>
</svg>
